<svg width="24" height="24" viewBox="0 0 24 24" fill="none" xmlns="http://www.w3.org/2000/svg">
<path d="M13.0943 22.4465C18.0085 20.155 20.1346 14.3136 17.8431 9.39937C17.8271 9.36523 17.811 9.33123 17.7948 9.29736L0 17.5952C0.0155014 17.6294 0.0311979 17.6636 0.0471175 17.6978C2.33865 22.612 8.18006 24.7381 13.0943 22.4465Z" fill="url(#paint0_linear_4187_1886)"/>
<path d="M10.9058 1.55403C5.99162 3.84557 3.86553 9.68698 6.15706 14.6012C6.17298 14.6353 6.18908 14.6693 6.20533 14.7032L24.0001 6.40536C23.9846 6.37113 23.9689 6.33695 23.953 6.30281C21.6615 1.3886 15.8201 -0.737504 10.9058 1.55403Z" fill="#48E4EF"/>
<defs>
<linearGradient id="paint0_linear_4187_1886" x1="9.42227" y1="17.5063" x2="18.2809" y2="8.64764" gradientUnits="userSpaceOnUse">
<stop stop-color="#4485FF"/>
<stop offset="1" stop-color="#4485FF" stop-opacity="0.6"/>
</linearGradient>
</defs>
</svg>
